<svg xmlns="http://www.w3.org/2000/svg" width="285" height="151"><g fill="none" fill-rule="evenodd"><path fill="#D43B63" d="M545.583 4.454c-1.681 3.556-6.297 8.77-14.223 16.065-119.084 109.595-229.565 101.5-316.265 59.623-130.418 14.494-286.12 3.109-441.8-82.538 0 0 484.477 368.442 761.153 26.588 8.493-10.493 12.065-17.104 11.42-20.575-.066.287-.16.568-.285.837" opacity=".598"/><path fill="#D53B64" d="M535.919-1.211C477.677 1.91 202.632 105.1 31.786-86.131c-.047-.054-.132 0-.094.059C42.158-69.934 265.257 266.265 531.347 21.17c7.83-7.211 12.425-12.389 14.151-15.942.533-1.095.624-2.397.062-3.477-1.213-2.333-4.6-2.978-9.641-2.962"/></g></svg>