<svg xmlns="http://www.w3.org/2000/svg" width="439" height="233"><g mask="url(#b)" fill="none" fill-rule="evenodd"><path fill="#D43B63" d="M788.358 54.318c-2.272 4.803-8.506 11.843-19.212 21.693C608.305 224 459.084 213.07 341.981 156.521 165.83 176.092-44.47 160.72-254.74 45.07c0 0 654.362 497.51 1028.057 35.902 11.47-14.168 16.295-23.095 15.424-27.783-.09.387-.215.768-.384 1.13" opacity=".598"/><path fill="#D53B64" d="M775.304 46.669C696.639 50.884 325.148 190.223 94.394-68c-.064-.073-.18 0-.128.08C108.403-46.128 409.732 407.844 769.13 76.89c10.575-9.738 16.783-16.73 19.114-21.527.719-1.479.842-3.236.083-4.695-1.638-3.15-6.213-4.021-13.022-4"/></g></svg>