<svg xmlns="http://www.w3.org/2000/svg" width="310" height="164"><g fill="none" fill-rule="evenodd"><path fill="#D43B63" d="M593.442 4.837c-1.83 3.863-6.85 9.525-15.472 17.448-129.53 119.031-249.701 110.24-344.007 64.757C92.105 102.783-77.256 90.418-246.591-2.602c0 0 526.974 400.162 827.92 28.877 9.238-11.396 13.124-18.577 12.422-22.347a4.588 4.588 0 0 1-.31.91" opacity=".598"/><path fill="#D53B64" d="M582.929-1.316c-63.35 3.39-362.522 115.465-548.355-92.23-.05-.06-.144 0-.102.064 11.384 17.527 254.053 382.67 543.484 116.475 8.517-7.832 13.516-13.456 15.393-17.315.58-1.19.679-2.603.067-3.776-1.32-2.534-5.003-3.235-10.487-3.218"/></g></svg>