<svg xmlns="http://www.w3.org/2000/svg" height="34.994" width="30"><path d="M16.09 34.96a15.41 15.41 0 0 0 3.683-.749 15.111 15.111 0 0 0 9.42-9.379c.778-2.272.993-4.59.647-6.997-.74-5.147-4.196-9.611-9.027-11.658a15.761 15.761 0 0 0-2.889-.895c-.724-.15-2.009-.288-2.665-.289H15l-.009-2.496L14.982 0 9.928 2.73 3.703 6.091c-.644.348-1.17.641-1.17.652 0 .011 2.801 1.59 6.225 3.507l6.224 3.486.01-2.501L15 8.733l.503.024c4.908.234 9.025 3.5 10.337 8.2.286 1.025.39 1.84.39 3.04 0 1.016-.042 1.467-.215 2.304-.564 2.712-2.046 5.049-4.246 6.696-1.592 1.191-3.312 1.887-5.358 2.167-.644.088-2.172.089-2.804 0-1.334-.184-2.392-.496-3.52-1.04A10.898 10.898 0 0 1 6 26.764c-1.192-1.592-1.89-3.316-2.168-5.359-.078-.579-.09-2.063-.02-2.625a11.55 11.55 0 0 1 .869-3.202 15.07 15.07 0 0 1 .64-1.253c.026-.043.041-.085.032-.092-.009-.01-.737-.428-1.617-.935-.903-.52-1.614-.908-1.63-.89-.07.073-.418.71-.643 1.174-1.69 3.486-1.926 7.545-.656 11.248 1.834 5.347 6.579 9.265 12.139 10.022 1.032.14 2.168.179 3.143.106z" fill="#fff"/></svg>