<svg xmlns="http://www.w3.org/2000/svg" width="231" height="122"><g fill="none" fill-rule="evenodd"><path fill="#D43B63" d="M442.21 3.598c-1.363 2.874-5.105 7.086-11.529 12.98-96.52 88.547-186.068 82.008-256.341 48.173C68.633 76.46-57.568 67.262-183.75-1.936c0 0 392.68 297.682 616.934 21.482 6.884-8.478 9.779-13.82 9.256-16.624a3.41 3.41 0 0 1-.23.676" opacity=".598"/><path fill="#D53B64" d="M434.376-.979C387.17 1.543 164.24 84.916 25.763-69.589c-.038-.044-.107 0-.076.047 8.483 13.04 189.31 284.67 404.984 86.647 6.346-5.827 10.07-10.01 11.47-12.88.431-.886.505-1.937.05-2.81-.984-1.885-3.729-2.406-7.815-2.394"/></g></svg>