<svg xmlns="http://www.w3.org/2000/svg" width="688" height="90"><g fill="none" fill-rule="evenodd"><path fill="#D43B63" d="M738.567-65.713c-2.035 4.303-7.621 10.61-17.213 19.436-144.107 132.593-277.802 122.8-382.72 72.135C180.81 43.393-7.609 29.618-196-74c0 0 586.278 445.756 921.092 32.167 10.277-12.694 14.6-20.693 13.819-24.892-.08.346-.193.687-.344 1.012" opacity=".598"/><path fill="#D53B64" d="M726.877-72.11c-70.444 3.78-403.112 128.775-609.752-102.863-.056-.066-.16 0-.113.071C129.67-155.353 399.51 251.882 721.347-44.999c9.47-8.735 15.03-15.007 17.117-19.31.644-1.328.754-2.904.074-4.212-1.467-2.826-5.563-3.608-11.66-3.59"/></g></svg>