<svg xmlns="http://www.w3.org/2000/svg" width="300" height="504"><g fill="none" fill-rule="evenodd"><path fill="#D43B63" d="M1069.221 148.86c-3.656 7.717-13.693 19.028-30.927 34.855-258.93 237.775-499.152 220.213-687.67 129.357C67.052 344.517-271.498 319.817-610 134c0 0 1053.42 799.36 1655.01 57.685 18.466-22.766 26.232-37.109 24.83-44.64a9.16 9.16 0 0 1-.619 1.816" opacity=".598"/><path fill="#D53B64" d="M1048.21 136.597C921.592 143.38 323.645 367.634-47.775-47.951c-.102-.118-.288 0-.204.128 22.753 35.072 507.77 765.7 1086.25 233.06 17.022-15.672 27.013-26.925 30.765-34.646 1.158-2.38 1.357-5.209.134-7.556-2.637-5.07-10-6.472-20.96-6.438"/></g></svg>