<svg xmlns="http://www.w3.org/2000/svg" width="300" height="250"><g fill="none" fill-rule="evenodd"><path fill="#D43B63" d="M616.567 52.287c-2.035 4.303-7.621 10.61-17.213 19.436-144.107 132.593-277.802 122.8-382.72 72.135C58.81 161.393-129.609 147.618-318 44c0 0 586.278 445.756 921.092 32.167 10.277-12.694 14.6-20.693 13.819-24.892-.08.346-.193.687-.344 1.012" opacity=".598"/><path fill="#D53B64" d="M604.877 45.89C534.433 49.67 201.765 174.665-4.875-56.973c-.056-.066-.16 0-.113.071C7.67-37.353 277.51 369.882 599.347 73.001c9.47-8.735 15.03-15.007 17.117-19.31.644-1.328.754-2.904.074-4.212-1.467-2.826-5.563-3.608-11.66-3.59"/></g></svg>